# xmcd
#
# Track frame offsets: 
#        150
#        26180
#        54907
#        77500
#        88397
#        114407
#        142457
#        152145
#        181882
#        196830
#        219575
#
# Disc length: 3333 seconds
#
# Revision: 15
# Processed by: cddbd v1.5.2PL0 Copyright (c) Steve Scherf et al.
# Submitted via: ExactAudioCopy v0.99pb5
#
DISCID=990d030b
DTITLE=Ismail Darbar - Hum Dil De Chuke Sanam
DYEAR=1999
DGENRE=Soundtrack
TTITLE0=Udit Narayan and Alka Yagnik  - Chand Chupa Badal Mein
TTITLE1=Kavita Krishnamurthy  - Nimbooda
TTITLE2=Kumar Sanu and Kavita Krishnamurthy - Aankhon Ki Gustakhiyan
TTITLE3=Shankar Mahadevan - Man Mohini
TTITLE4=Hariharan  - Jhonka Hawa Ka
TTITLE5=Kavita Krishnamurthy, Vinod Rathod, Karsan Sargathia  - Dholi 
TTITLE5=Taro Dhol Baaje
TTITLE6=Shankar Mahadevan and Kavita Krishnamurthy - Love Theme
TTITLE7=Kay Kay and Dominique - Tadap Tadap
TTITLE8=Ustad Sultan Khan, Shankar Mahadevan and Kavita Krishnamurthy  /
TTITLE8=Albela Sajan
TTITLE9=Shankar Mahadevan, Damayanti Bardai, Kay Kay and Jyotsna Hardika
TTITLE9=r  - Kaipoche
TTITLE10=Kavita Krishnamurthy and Mohammad Salamat  - Hum Dil De Chuke S
TTITLE10=anam
EXTD=
EXTT0=
EXTT1=
EXTT2=
EXTT3=
EXTT4=
EXTT5=
EXTT6=
EXTT7=
EXTT8=
EXTT9=
EXTT10=
PLAYORDER=
